<?xml version="1.0" encoding="utf-8"?>
<!-- Generator: Adobe Illustrator 23.0.6, SVG Export Plug-In . SVG Version: 6.00 Build 0)  -->
<svg version="1.1" id="Ebene_1" xmlns="http://www.w3.org/2000/svg" xmlns:xlink="http://www.w3.org/1999/xlink" x="0px" y="0px"
	 viewBox="0 0 418 97" style="enable-background:new 0 0 418 97;" xml:space="preserve">
<style type="text/css">
	.st0{fill:#000000;}
	.st1{fill-rule:evenodd;clip-rule:evenodd;fill:url(#SVGID_1_);}
	.st2{fill-rule:evenodd;clip-rule:evenodd;fill:#FFFFFF;}
</style>
<path class="st0" d="M142.26,76.95v2h48.47c3.34,0,6.04-2.71,6.04-6.04v-5.2v-6.04v-5.2v-6.04h-54.51V76.95z M149.9,56.46h39.22v5.2
	H149.9V56.46z M149.9,67.7h39.22v5.2H149.9V67.7z M10.84,53.4h16.68l0,0h7.64l0,0h18.28c3.34,0,6.04-2.71,6.04-6.04v-8.99v-6.04
	v-8.99V17.3H3.2v36.11L10.84,53.4L10.84,53.4z M35.16,23.33h16.68v8.99H35.16V23.33z M35.16,38.36h16.68v8.99H35.16V38.36z
	 M10.84,23.33h16.68v8.99H10.84L10.84,23.33L10.84,23.33z M10.84,38.36h16.68v8.99H10.84L10.84,38.36L10.84,38.36z M0,78.94h7.64
	l3.82-22.82H3.82L0,78.94z M148.85,29.86h-7.64l2.84,9.08h7.64L148.85,29.86z M187.21,38.93h7.64l2.84-9.08h-7.64L187.21,38.93z
	 M51.42,56.12l3.82,22.82h7.64l-3.82-22.82H51.42z M36.27,70.67h7.64l-2.44-14.54h-7.64L36.27,70.67z M124.38,25.81h-7.64
	l-1.22,4.33h-10.25l-1.36-4.33h-7.64l1.36,4.33H85.45l-1.36-4.33h-7.64l1.36,4.33h-7.02v8.97h7.64v-2.93h44.02v2.93h7.64v-8.97
	h-6.93L124.38,25.81z M129.67,17.29H71.18v6.04h52.44C126.96,23.33,129.67,20.62,129.67,17.29z M183.34,41.69v-14.6h9.79
	c3.34,0,6.04-2.71,6.04-6.04h-10.33l1.06-3.77h-7.64l-1.06,3.77h-23.42l-1.18-3.77h-7.64l1.18,3.77h-10.42v6.04h15.85v14.6h-16.8
	v6.04h55.3c3.34,0,6.04-2.71,6.04-6.04H183.34z M175.7,41.69h-12.48v-14.6h12.48V41.69z M124.05,47.74c3.34,0,6.04-2.71,6.04-6.04
	H90.97l1-2.73h-7.64l-1,2.73H70.79v6.04h10.33L69.68,78.95h7.64l5.6-15.28l14.44,6.57l-5.85,2.66h-4.89l-2.13,6.04h10.87
	c0.89,0,1.73-0.19,2.49-0.54l0,0l8.72-3.97l8.66,3.94c0.78,0.36,1.64,0.56,2.55,0.56h12.3v-6.04h-8.44l-5.85-2.66l7.64-3.48
	c2.06-0.96,3.48-3.05,3.48-5.47v-8.42H86.86l1.88-5.13h35.31V47.74z M119.28,58.91v1.34l-12.71,5.78L90.92,58.9h28.36V58.91z
	 M24.31,72.9V56.12h-7.64V72.9c0,3.34,2.71,6.04,6.04,6.04h25.45l-1.25-6.04H24.31z"/>
<g>
	<g>
		<g>
			
				<linearGradient id="SVGID_1_" gradientUnits="userSpaceOnUse" x1="320.2912" y1="97.8004" x2="320.2912" y2="1.4304" gradientTransform="matrix(1 0 0 -1 0 98)">
				<stop  offset="0" style="stop-color:#000000"/>
				<stop  offset="0.0164" style="stop-color:#000000"/>
				<stop  offset="0.3079" style="stop-color:#000000"/>
				<stop  offset="0.5782" style="stop-color:#000000"/>
				<stop  offset="0.8173" style="stop-color:#000000"/>
				<stop  offset="1" style="stop-color:#000000"/>
			</linearGradient>
			<polyline class="st1" points="222.89,96.57 321.34,96.57 417.69,0.2 222.89,0.2 222.89,96.57 			"/>
		</g>
		<path class="st2" d="M338.49,18.32l-19.18-0.01V63.9l-16.75-45.59h-16.61l-14.3,38.13c-1.52-9.62-11.47-12.94-19.29-15.42
			c-5.17-1.66-10.65-4.1-10.6-6.8c0.04-2.21,2.94-4.27,8.68-3.96c3.86,0.2,7.26,0.52,14.03,3.78l6.66-11.6
			c-6.18-3.15-14.72-5.13-21.72-5.14h-0.04c-8.16,0-14.96,2.64-19.18,7c-2.94,3.04-4.52,6.91-4.59,11.19
			c-0.11,5.88,2.05,10.06,6.58,13.39c3.83,2.81,8.72,4.63,13.04,5.96c5.32,1.65,9.67,3.08,9.62,6.14c-0.04,1.11-0.46,2.15-1.26,2.99
			c-1.32,1.37-3.36,1.88-6.18,1.94c-5.43,0.11-9.46-0.74-15.88-4.53l-5.92,11.76c6.4,3.64,13.98,5.78,21.71,5.78l1-0.01
			c6.73-0.12,12.16-2.04,16.5-5.53c0.25-0.2,0.47-0.4,0.7-0.61l-1.92,5.14h17.42l2.92-8.89c3.06,1.05,6.54,1.62,10.24,1.62
			c3.6,0,6.99-0.55,9.99-1.53l2.82,8.8h28.41V59.5h6.19c14.98,0,23.84-7.63,23.84-20.41C365.43,24.85,356.82,18.32,338.49,18.32z
			 M294.17,57.33c-2.24,0-4.33-0.39-6.14-1.07l6.08-19.18h0.11l5.97,19.23C298.4,56.95,296.35,57.33,294.17,57.33z M339.62,46.31
			h-4.22V30.86h4.22c5.63,0,10.13,1.87,10.13,7.62C349.75,44.44,345.25,46.31,339.62,46.31"/>
	</g>
</g>
</svg>
